<?xml version="1.0" encoding="UTF-8"?>
<svg id="_圖層_1" data-name="圖層 1" xmlns="http://www.w3.org/2000/svg" viewBox="0 0 137.13 47.57">
  <rect y="0" width="27.71" height="6.56"/>
  <rect x="10.05" y="11.74" width="13.58" height="5.9"/>
  <polygon points="27.71 22.81 6.56 22.81 6.56 11.74 0 11.74 0 22.81 0 22.81 0 29.38 27.71 29.38 27.71 22.81"/>
  <polygon points="57.06 29.37 47.17 0 40.6 0 50.5 29.37 57.06 29.37"/>
  <polygon points="68.03 29.37 58.13 0 51.57 0 61.47 29.37 68.03 29.37"/>
  <polygon points="41.64 15.65 38.35 5.91 30.5 29.37 37.06 29.37 41.64 15.65"/>
  <polygon points="101.53 29.37 91.63 0 85.07 0 94.97 29.37 101.53 29.37"/>
  <polygon points="117.5 22.54 114.8 16.25 104.84 29.37 112.31 29.37 117.5 22.54"/>
  <polygon points="137.13 0 129.66 0 125.58 5.25 128.27 11.55 137.13 0"/>
  <polygon points="120.53 20.63 124.29 29.37 131.69 29.37 125.28 14.37 122.59 8.06 119.14 0 111.67 0 117.83 14.34 120.53 20.63"/>
  <polygon points="77.61 29.37 77.77 29.37 79.23 24.75 81.54 24.75 85.88 24.75 88.54 24.75 86.62 18.85 81.12 18.85 83.89 10.41 80.61 .67 71.05 29.37 75.09 29.37 77.61 29.37"/>
  <polygon points="1.24 45.1 3.95 45.1 3.95 44.08 1.24 44.08 1.24 42.57 4.48 42.57 4.48 41.51 .06 41.51 .06 47.5 4.66 47.5 4.66 46.45 1.24 46.45 1.24 45.1"/>
  <polygon points="8.7 44.94 6.22 41.51 5.63 41.51 5.63 47.5 6.84 47.5 6.84 44.19 8.7 46.78 10.55 44.19 10.55 47.5 11.77 47.5 11.77 41.51 11.18 41.51 8.7 44.94"/>
  <path d="M15.34,41.51l-2.85,5.99h1.28l.54-1.21h2.67l.54,1.21h1.28l-2.86-5.99h-.6ZM14.74,45.27l.9-1.98.91,1.98h-1.81Z"/>
  <polygon points="24.8 41.51 23.45 41.51 21.97 43.55 20.5 41.51 19.14 41.51 21.19 44.48 19.09 47.5 20.47 47.5 21.97 45.41 23.47 47.5 24.86 47.5 22.76 44.48 24.8 41.51"/>
  <path d="M30.83,41.51h-2.46v5.99h1.21v-1.54h1.01c1.52,0,2.58-.65,2.58-2.29,0-1.12-.59-2.16-2.34-2.16ZM30.47,44.95h-.89v-2.39h1.05c.94,0,1.26.58,1.26,1.2,0,.7-.46,1.19-1.43,1.19Z"/>
  <path d="M35.76,41.51l-2.85,5.99h1.28l.53-1.21h2.67l.54,1.21h1.28l-2.86-5.99h-.6ZM35.16,45.27l.9-1.98.91,1.98h-1.81Z"/>
  <rect x="39.97" y="41.51" width="1.22" height="5.99"/>
  <polygon points="46.6 45.28 43.04 41.51 42.44 41.51 42.44 47.5 43.66 47.5 43.66 43.73 47.23 47.5 47.83 47.5 47.83 41.51 46.6 41.51 46.6 45.28"/>
  <polygon points="48.73 42.57 50.64 42.57 50.64 47.5 51.86 47.5 51.86 42.57 53.77 42.57 53.77 41.51 48.73 41.51 48.73 42.57"/>
  <path d="M59.85,41.51h-2.46v5.99h1.21v-1.54h1.01c1.52,0,2.58-.65,2.58-2.29,0-1.12-.59-2.16-2.34-2.16ZM59.49,44.95h-.89v-2.39h1.05c.94,0,1.26.58,1.26,1.2,0,.7-.46,1.19-1.43,1.19Z"/>
  <path d="M68.03,43.67c0-1.12-.59-2.16-2.34-2.16h-2.64v5.99h1.21v-1.54h1.11c.08,0,.16,0,.23,0l1.15,1.55h1.45l-1.39-1.78c.79-.34,1.21-1.02,1.21-2.05ZM65.33,44.96h-1.07v-2.39h1.23c.94,0,1.26.58,1.26,1.2,0,.7-.46,1.2-1.43,1.2Z"/>
  <path d="M71.94,41.45c-1.76,0-3.18,1.37-3.18,3.06s1.43,3.06,3.18,3.06,3.18-1.37,3.18-3.06-1.42-3.06-3.18-3.06ZM71.94,46.43c-1.07,0-1.94-.86-1.94-1.92s.87-1.92,1.94-1.92,1.94.87,1.94,1.92-.87,1.92-1.94,1.92Z"/>
  <polygon points="75.55 42.57 77.45 42.57 77.45 47.5 78.67 47.5 78.67 42.57 80.59 42.57 80.59 41.51 75.55 41.51 75.55 42.57"/>
  <polygon points="82.65 45.1 85.36 45.1 85.36 44.08 82.65 44.08 82.65 42.57 85.89 42.57 85.89 41.51 81.47 41.51 81.47 47.5 86.06 47.5 86.06 46.45 82.65 46.45 82.65 45.1"/>
  <path d="M89.91,42.6c.63,0,1.19.31,1.53.79l.94-.8c-.59-.7-1.47-1.15-2.47-1.15-1.74,0-3.16,1.38-3.16,3.07s1.42,3.06,3.16,3.06c1,0,1.89-.44,2.47-1.14l-.94-.8c-.34.48-.9.79-1.53.79-1.04,0-1.9-.78-1.9-1.91s.86-1.91,1.9-1.91Z"/>
  <polygon points="92.96 42.57 94.86 42.57 94.86 47.5 96.09 47.5 96.09 42.57 98 42.57 98 41.51 92.96 41.51 92.96 42.57"/>
  <rect x="98.91" y="41.51" width="1.22" height="5.99"/>
  <path d="M104.32,41.45c-1.76,0-3.18,1.37-3.18,3.06s1.43,3.06,3.18,3.06,3.18-1.37,3.18-3.06-1.42-3.06-3.18-3.06ZM104.32,46.43c-1.07,0-1.94-.86-1.94-1.92s.87-1.92,1.94-1.92,1.94.87,1.94,1.92-.87,1.92-1.94,1.92Z"/>
  <polygon points="112.67 45.28 109.1 41.51 108.51 41.51 108.51 47.5 109.72 47.5 109.72 43.73 113.3 47.5 113.89 47.5 113.89 41.51 112.67 41.51 112.67 45.28"/>
  <polygon points="117.85 47.5 119.03 47.5 119.03 45.75 121.89 45.75 121.89 44.7 119.03 44.7 119.03 42.57 122.36 42.57 122.36 41.51 117.85 41.51 117.85 47.5"/>
  <rect x="123.29" y="41.51" width="1.22" height="5.99"/>
  <polygon points="126.98 41.51 125.77 41.51 125.77 47.5 130.06 47.5 130.06 46.48 126.98 46.48 126.98 41.51"/>
  <polygon points="133.99 44.94 131.52 41.51 130.92 41.51 130.92 47.5 132.14 47.5 132.14 44.19 133.99 46.78 135.85 44.19 135.85 47.5 137.07 47.5 137.07 41.51 136.47 41.51 133.99 44.94"/>
  <rect x="0" y="33.09" width="137.13" height=".77"/>
  <rect x="0" y="37.18" width="137.13" height=".77"/>
</svg>